<svg width="26" height="20" viewBox="0 0 26 20" fill="none" xmlns="http://www.w3.org/2000/svg">
<path opacity="0.7" d="M4.33301 0.5H21.667C22.5176 0.500211 23.333 1.33172 23.333 2.5L23.3223 15L23.3135 15.2158C23.2215 16.2721 22.4616 16.9998 21.667 17V18H24.917C25.1719 18.0002 25.5 18.2693 25.5 18.75C25.5 19.2307 25.1719 19.4998 24.917 19.5H1.08301C0.828139 19.4998 0.5 19.2307 0.5 18.75C0.5 18.2693 0.828139 18.0002 1.08301 18H4.33301V17C3.48238 16.9998 2.66699 16.1683 2.66699 15V2.5C2.66699 1.33172 3.48238 0.500212 4.33301 0.5ZM5.41699 2C4.48024 2 3.83301 2.85593 3.83301 3.75V13.75C3.83301 14.6441 4.48024 15.5 5.41699 15.5H20.583C21.5198 15.5 22.167 14.6441 22.167 13.75V3.75C22.167 2.85593 21.5198 2 20.583 2H5.41699Z" stroke="black"/>
</svg>
