<svg width="22" height="24" viewBox="0 0 22 24" fill="none" xmlns="http://www.w3.org/2000/svg">
<path d="M4.5 19.15H1V8.15C1 6.5 2 4.575 3.5 3.2C5 1.825 8 1 8 1M8 1H14M8 1C8 1.87521 8.31605 2.71458 8.87866 3.33344C9.44127 3.95231 10.2043 4.29999 11 4.29999C11.7956 4.29999 12.5587 3.95231 13.1213 3.33344C13.6839 2.71458 14 1.87521 14 1M14 1C14 1 17 1.825 18.5 3.2C20 4.575 21 6.5 21 8.15V19.15H17.5M17.5 8.14999V23H4.50002V8.14999" stroke="black" stroke-width="1.3" stroke-linecap="round" stroke-linejoin="round"/>
</svg>
