<svg width="25" height="25" viewBox="0 0 25 25" fill="none" xmlns="http://www.w3.org/2000/svg">
<path opacity="0.7" d="M4.67578 13.7861C4.15957 13.7861 3.7105 13.9772 3.34668 14.3301L3.19629 14.4912C2.8132 14.9409 2.62509 15.4813 2.625 16.085C2.625 16.6887 2.81299 17.2273 3.2002 17.6699C3.58977 18.1151 4.09073 18.3574 4.67578 18.3574C5.25997 18.3573 5.762 18.1157 6.1582 17.6748C6.55545 17.2326 6.75 16.6923 6.75 16.085C6.74992 15.5536 6.60135 15.0722 6.30078 14.6592L6.16211 14.4863C5.76757 14.0356 5.26475 13.7863 4.67578 13.7861ZM20.3252 13.7861C19.8094 13.7861 19.3591 13.977 18.9902 14.3271L18.8379 14.4863C18.4448 14.9356 18.2501 15.4776 18.25 16.085C18.25 16.6923 18.4445 17.2326 18.8418 17.6748C19.2381 18.1158 19.7408 18.3574 20.3252 18.3574C20.91 18.3573 21.4103 18.115 21.7998 17.6699C22.187 17.2273 22.375 16.6887 22.375 16.085C22.3749 15.5567 22.2312 15.077 21.9385 14.6641L21.8037 14.4912C21.416 14.0363 20.9149 13.7863 20.3252 13.7861ZM2.0625 20.6592L1.84082 20.5107C1.49253 20.2774 1.20113 19.9701 0.966797 19.5811L0.869141 19.4092C0.62498 18.9467 0.50004 18.4325 0.5 17.8574V12.5C0.5 12.1456 0.613026 11.7074 0.876953 11.1758L0.999023 10.9414C1.35212 10.301 1.79976 9.68778 2.34375 9.10156L2.43652 9.00195L2.46582 8.86914L3.61328 3.67969L3.625 3.62598V3.57129C3.62502 2.80726 3.82944 2.15882 4.23242 1.60645L4.41699 1.37598C4.94039 0.777804 5.54326 0.5 6.25 0.5H18.75C19.3683 0.5 19.9071 0.712362 20.3828 1.16602L20.583 1.37598C21.1081 1.9762 21.375 2.69829 21.375 3.57129V3.62598L21.3867 3.67969L22.5342 8.86914L22.5635 9.00195L22.6562 9.10156C23.2002 9.68778 23.6479 10.301 24.001 10.9414C24.353 11.5798 24.5 12.0949 24.5 12.5V17.8574C24.5 18.4325 24.375 18.9467 24.1309 19.4092C23.8818 19.8809 23.5573 20.244 23.1592 20.5107L22.9375 20.6592V23.2139C22.9375 23.6078 22.8226 23.9105 22.6094 24.1543C22.3969 24.3972 22.1651 24.4999 21.8877 24.5C21.6095 24.5 21.3706 24.3966 21.1484 24.1494C20.929 23.9053 20.8125 23.6041 20.8125 23.2139V20.9287H4.1875V23.2139C4.1875 23.5587 4.09954 23.8339 3.93457 24.0605L3.85938 24.1543C3.64686 24.3972 3.41506 24.4999 3.1377 24.5C2.89419 24.5 2.68076 24.4208 2.48242 24.2354L2.39844 24.1494C2.17903 23.9053 2.0625 23.6041 2.0625 23.2139V20.6592ZM20.8125 8.875L20.8008 8.82129L20.0283 5.29102C20.0148 4.72056 19.8274 4.20864 19.46 3.77734C19.07 3.31967 18.5638 3.07129 17.9688 3.07129H7.03125C6.4471 3.07129 5.94915 3.32391 5.55664 3.77246C5.1795 4.20348 4.98462 4.71697 4.9707 5.29102L4.19922 8.82129L4.1875 8.875V8.92871C4.18753 9.53912 4.37386 10.0829 4.7627 10.5273C5.15436 10.975 5.65984 11.2139 6.25 11.2139H18.75C19.3402 11.2139 19.8456 10.975 20.2373 10.5273C20.6261 10.0829 20.8125 9.53912 20.8125 8.92871V8.875Z" stroke="black"/>
</svg>
