<svg width="19" height="20" viewBox="0 0 19 20" fill="none" xmlns="http://www.w3.org/2000/svg">
<path d="M9.16699 1.13184C9.26979 1.13189 9.37045 1.15768 9.45996 1.20605L9.54492 1.26172L17.0879 7.12891C17.3457 7.32949 17.5603 7.57928 17.7197 7.86328L17.7842 7.9873C17.948 8.3227 18.0335 8.69117 18.0332 9.06445V17.333C18.0331 17.7396 17.8715 18.1295 17.584 18.417C17.2964 18.7044 16.9066 18.8662 16.5 18.8662H12.833C12.4265 18.8661 12.0365 18.7045 11.749 18.417C11.4615 18.1295 11.2999 17.7396 11.2998 17.333V11.5322H7.0332V17.333C7.03311 17.7396 6.87146 18.1295 6.58398 18.417C6.29644 18.7044 5.90659 18.8662 5.5 18.8662H1.83301C1.47719 18.8661 1.13413 18.7422 0.861328 18.5186L0.749023 18.417C0.461548 18.1295 0.299895 17.7396 0.299805 17.333V9.06445C0.299805 8.30669 0.649735 7.59481 1.24805 7.12891L1.24707 7.12793L8.78809 1.26172C8.89631 1.17758 9.02991 1.13184 9.16699 1.13184ZM8.98242 2.67285L2.00293 8.10156C1.8931 8.18701 1.79912 8.29051 1.72461 8.40723L1.65625 8.5293C1.59526 8.65455 1.55641 8.78898 1.54102 8.92676L1.5332 9.06445V17.6328H5.7998V11.833C5.7998 11.4263 5.96147 11.0356 6.24902 10.748C6.53649 10.4607 6.92653 10.2999 7.33301 10.2998H11C11.4065 10.2998 11.7965 10.4607 12.084 10.748C12.3715 11.0356 12.5332 11.4263 12.5332 11.833V17.6328H16.7998V9.06445C16.8001 8.92539 16.7765 8.78774 16.7305 8.65723L16.6768 8.5293C16.6157 8.40403 16.5336 8.29043 16.4346 8.19336L16.3301 8.10156L9.4668 2.76465V2.29688L8.98242 2.67285Z" stroke="black" stroke-width="0.6"/>
</svg>
