<svg width="25" height="25" viewBox="0 0 25 25" fill="none" xmlns="http://www.w3.org/2000/svg">
<path opacity="0.7" d="M14.2305 0.5H20.1729C20.3116 0.500087 20.4081 0.551319 20.4795 0.638672C20.5583 0.735257 20.6308 0.909164 20.6309 1.1748C20.6309 1.44059 20.5583 1.61432 20.4795 1.71094C20.408 1.79847 20.3118 1.8505 20.1729 1.85059H14.4229C13.5486 1.85059 12.9639 2.56764 12.9639 3.29004V7.55078H18.8311C20.7528 7.5509 22.6458 9.29473 23.0889 11.8076L23.127 12.0527L23.1279 12.0615L24.4697 20.7568C24.6409 22.2738 24.0957 23.661 23.0068 24.2334L22.9922 24.2412L22.9775 24.25C22.1178 24.7769 20.8856 24.4703 20.2285 23.2617L20.2197 23.2461L20.21 23.2314L18.1016 19.9414L17.9541 19.7109H7.05762L6.91016 19.9414L4.80176 23.2314L4.7959 23.2402L4.79102 23.249C4.37371 23.9654 3.82059 24.3285 3.27344 24.418C2.72728 24.5072 2.1102 24.3364 1.53516 23.8359C0.762377 23.069 0.418609 21.9357 0.515625 20.9561L0.541016 20.7617L0.541992 20.7568L1.88379 12.0615L1.88477 12.0527C2.24416 9.409 4.19716 7.55107 6.18066 7.55078H12.0479V3.52539C12.0479 2.68261 12.3063 1.90784 12.7158 1.35547C13.073 0.873689 13.5268 0.580428 14.0186 0.514648L14.2305 0.5ZM6.75586 8.90039C5.80421 8.90048 4.95382 9.40929 4.35645 10.1416C3.75724 10.8763 3.38086 11.8696 3.38086 12.9258C3.38091 13.9819 3.75728 14.9743 4.35645 15.709C4.95383 16.4415 5.80406 16.9511 6.75586 16.9512C7.70776 16.9512 8.55881 16.4415 9.15625 15.709C9.75531 14.9743 10.1308 13.9818 10.1309 12.9258C10.1309 11.8696 9.75545 10.8763 9.15625 10.1416C8.55882 9.4091 7.70771 8.90039 6.75586 8.90039ZM18.2559 8.90039C17.8202 8.90039 17.4377 9.08384 17.1738 9.40723C16.9173 9.72182 16.7979 10.136 16.7979 10.5752V11.251H16.3389C15.9032 11.2511 15.5207 11.4343 15.2568 11.7578C15.0003 12.0724 14.8809 12.4866 14.8809 12.9258C14.8809 13.365 15.0003 13.7791 15.2568 14.0938C15.5207 14.4172 15.9033 14.6005 16.3389 14.6006H16.7979V15.2754C16.7979 15.7146 16.9172 16.1287 17.1738 16.4434C17.4377 16.7669 17.8201 16.9512 18.2559 16.9512C18.6916 16.9512 19.074 16.7669 19.3379 16.4434C19.5945 16.1287 19.7139 15.7146 19.7139 15.2754V14.6006H20.1729C20.6084 14.6005 20.9911 14.4172 21.2549 14.0938C21.5115 13.7791 21.6308 13.365 21.6309 12.9258C21.6309 12.4866 21.5114 12.0724 21.2549 11.7578C20.9911 11.4343 20.6085 11.2511 20.1729 11.251H19.7139V10.5752C19.7138 10.136 19.5945 9.72182 19.3379 9.40723C19.074 9.08384 18.6915 8.90039 18.2559 8.90039Z" stroke="black"/>
</svg>
